<svg xmlns="http://www.w3.org/2000/svg" viewBox="0 0 64 64"><defs><linearGradient id="g" x1="0" x2="1"><stop offset="0" stop-color="#E8590C"/><stop offset="1" stop-color="#F5B400"/></linearGradient></defs><rect width="64" height="64" rx="14" fill="#10133A"/><path d="M22 12c-7 0-10 5-10 12 0 7 3.4 12 5 19 1.3 6 2.6 11 6 11s3.5-6.6 5.2-11.6c.8-2.4 2.2-3.4 3.8-3.4s3 1 3.8 3.4C37.5 47.4 37.6 54 41 54s4.7-5 6-11c1.6-7 5-12 5-19 0-7-3-12-10-12-4.3 0-6.8 2.6-10 2.6S26.3 12 22 12Z" fill="none" stroke="#fff" stroke-width="3.4" stroke-linejoin="round"/><path d="M6 27h14l3.5-7 4.5 13 3.6-9 2.4 3H52" fill="none" stroke="url(#g)" stroke-width="3.4" stroke-linecap="round" stroke-linejoin="round"/><circle cx="55" cy="27" r="3.2" fill="#F5B400"/></svg>
